<?xml version="1.0" standalone="no"?><!DOCTYPE svg PUBLIC "-//W3C//DTD SVG 1.1//EN" "http://www.w3.org/Graphics/SVG/1.1/DTD/svg11.dtd"><svg class="icon" width="200px" height="200.00px" viewBox="0 0 1024 1024" version="1.1" xmlns="http://www.w3.org/2000/svg"><path fill="#333333" d="M513.024 24.576C244.81792 24.576 26.624 242.78016 26.624 510.976c0 268.21632 218.19392 486.4 486.4 486.4 127.35488 0 247.76704-48.88576 339.05664-137.66656C947.0976 767.3344 999.424 643.47136 999.424 510.976c0-268.19584-218.19392-486.4-486.4-486.4zM205.312 837.632C256.67584 716.8 377.27232 636.4672 509.27616 636.4672c133.72416-0.01024 256.04096 82.72896 306.10432 206.40768-82.86208 75.61216-189.66528 117.08416-302.35648 117.08416-118.97856 0-227.28704-46.52032-307.712-122.32704z m157.62432-388.64896c0-82.74944 67.328-150.07744 150.08768-150.07744 82.7392 0 150.0672 67.328 150.0672 150.07744S595.7632 599.05024 513.024 599.05024c-82.75968 0-150.08768-67.31776-150.08768-150.0672z m480.95232 365.49632C798.3104 714.50624 709.5296 640.65536 605.44 612.05504c56.71936-32.27648 95.06816-93.27616 95.06816-163.072 0-103.38304-84.11136-187.4944-187.48416-187.4944-103.38304 0-187.4944 84.10112-187.4944 187.4944 0 68.82304 37.2736 129.08544 92.69248 161.69984-104.36608 27.01312-193.81248 99.34848-240.91648 198.10304C106.86464 729.47712 64.04096 625.13152 64.04096 510.976c0-247.56224 201.4208-448.98304 448.98304-448.98304 247.56224 0 448.98304 201.41056 448.98304 448.98304 0 113.70496-41.75872 220.50816-118.1184 303.50336z m0 0" /></svg>